<?xml version="1.0" encoding="utf-8"?>
<!-- Generator: Adobe Illustrator 26.1.0, SVG Export Plug-In . SVG Version: 6.00 Build 0)  -->
<svg version="1.1" id="Camada_1" xmlns="http://www.w3.org/2000/svg" xmlns:xlink="http://www.w3.org/1999/xlink" x="0px" y="0px"
	 viewBox="0 0 34 20" style="enable-background:new 0 0 34 20;" xml:space="preserve">
<style type="text/css">
	.st0{fill:#FFFFFF;}
</style>
<g>
	<path class="st0" d="M22.32,15.03l-0.01-0.02c0,0,0,0,0,0c0,0,0,0,0,0l-0.01-0.02h0c-0.11-0.24-0.25-0.46-0.42-0.66
		c-0.5-0.57-1.19-0.86-2.09-0.86c-0.85,0-1.54,0.3-2.06,0.89c-0.15,0.17-0.27,0.35-0.37,0.55h0l-0.01,0.02c0,0,0,0,0,0c0,0,0,0,0,0
		l-0.01,0.02h0c-0.26,0.5-0.39,1.08-0.39,1.76c0,1,0.25,1.79,0.75,2.38c0.5,0.59,1.2,0.88,2.09,0.88c0.87,0,1.56-0.29,2.07-0.87
		c0.51-0.58,0.76-1.38,0.76-2.39C22.63,16.05,22.52,15.5,22.32,15.03L22.32,15.03z M21.01,18.43c-0.29,0.42-0.7,0.63-1.22,0.63
		c-1.11,0-1.67-0.79-1.67-2.36c0-0.73,0.15-1.3,0.45-1.71c0.02-0.03,0.05-0.06,0.07-0.08l0,0c0.29-0.36,0.68-0.54,1.15-0.54
		c0.55,0,0.96,0.19,1.24,0.57l0,0.01c0.28,0.39,0.42,0.97,0.42,1.75C21.46,17.43,21.31,18.01,21.01,18.43z"/>
	<path class="st0" d="M25,14.59v-1h-1.11v1.51v0.03v0.02v4.71H25v-3.59c0-0.37,0.08-0.7,0.23-1l0-0.01c0.06-0.11,0.13-0.21,0.2-0.31
		c0.29-0.36,0.64-0.54,1.03-0.54c0.25,0,0.49,0.08,0.73,0.25l0.46-1.08c-0.37-0.07-0.66-0.11-0.86-0.11
		C26.01,13.47,25.4,13.84,25,14.59z"/>
	<path class="st0" d="M10.04,16.34l-0.8-0.36c-0.22-0.1-0.39-0.23-0.5-0.37c-0.12-0.15-0.18-0.33-0.18-0.54
		c0-0.19,0.09-0.35,0.27-0.47c0.18-0.12,0.4-0.19,0.67-0.19c0.44,0,0.89,0.18,1.33,0.53l0.32-1.03c-0.69-0.29-1.27-0.43-1.73-0.43
		c-0.6,0-1.09,0.14-1.47,0.43c-0.37,0.29-0.56,0.69-0.56,1.21c0,0.2,0.03,0.39,0.1,0.56c0.01,0.02,0.02,0.04,0.02,0.06l0,0
		l0.02,0.04c0,0,0,0.01,0,0.01c0,0,0,0,0,0l0.01,0.01l0,0c0.06,0.13,0.14,0.25,0.24,0.37c0.13,0.15,0.28,0.29,0.46,0.41
		c0.18,0.12,0.52,0.3,1.03,0.53c0.66,0.3,1,0.65,1,1.07c0,0.58-0.34,0.87-1.03,0.87c-0.38,0-0.88-0.2-1.5-0.61l-0.39,1.05
		c0.58,0.33,1.2,0.49,1.86,0.49c0.7,0,1.24-0.16,1.64-0.48c0.39-0.32,0.59-0.76,0.59-1.32c0-0.43-0.11-0.79-0.33-1.07
		C10.89,16.82,10.53,16.56,10.04,16.34z"/>
	<path class="st0" d="M15.25,19.03c-0.39,0-0.68-0.11-0.86-0.33c-0.18-0.22-0.27-0.6-0.27-1.12v-2.5h0v-0.02v-0.59h1.72v-0.88h-1.72
		v-1.74l-1.11,0.43v1.31h-0.73v0.88h0.73v0.67v0.03v0.02v2.85c0,0.56,0.17,1.03,0.51,1.4c0.34,0.37,0.76,0.55,1.26,0.55
		c0.55,0,1.06-0.06,1.52-0.18l-0.16-0.98C15.83,18.96,15.53,19.03,15.25,19.03z"/>
	<path class="st0" d="M4.92,16.14v0.04v0.02v0.92c0,0.56-0.17,1.01-0.5,1.33c-0.33,0.33-0.79,0.49-1.36,0.49
		c-0.55,0-0.99-0.17-1.32-0.51c-0.33-0.34-0.5-0.77-0.5-1.29v-0.26v-0.05v-5.56H0.07v5.81v0.05v0.02v0.08
		c0,0.89,0.26,1.57,0.78,2.05C1.37,19.76,2.11,20,3.07,20c0.93,0,1.67-0.24,2.21-0.73c0.54-0.49,0.81-1.16,0.81-2.03v-1.25v-0.04
		v-4.67H4.92V16.14z"/>
	<path class="st0" d="M32.55,16.83h0.03h1.15c0.06-0.21,0.09-0.43,0.09-0.68c0-0.8-0.25-1.44-0.74-1.93
		c-0.51-0.5-1.21-0.76-2.1-0.76c-0.77,0-1.43,0.28-2,0.84c-0.38,0.38-0.65,0.84-0.8,1.38l0,0l-0.01,0.02c0,0,0,0,0,0c0,0,0,0,0,0
		l0,0.01l0,0c-0.09,0.33-0.13,0.69-0.13,1.07c0,1,0.31,1.79,0.92,2.38c0.55,0.53,1.22,0.8,2.01,0.8c0.55,0,1.04-0.08,1.49-0.25
		c0.36-0.12,0.62-0.27,0.79-0.44l-0.47-0.8c-0.43,0.37-0.96,0.56-1.59,0.56c-0.56,0-1.01-0.17-1.37-0.51
		c-0.4-0.39-0.6-0.96-0.6-1.69h3.29H32.55z M29.67,16.02h-0.02h-0.41c0-0.03,0.01-0.06,0.01-0.09l0,0c0.06-0.41,0.23-0.76,0.53-1.04
		c0.34-0.32,0.75-0.48,1.25-0.48c0.53,0,0.95,0.16,1.26,0.49c0.28,0.3,0.42,0.68,0.42,1.12h-2.99H29.67z"/>
	<path class="st0" d="M28.66,7.93c0.08,0.15,0.12,0.28,0.14,0.37c0.01,0.04,0.02,0.08,0.02,0.09l0.07,0.59l0.28,0.12l0.24,0.1
		c0.01,0,0.12,0.06,0.28,0.16c0.14,0.09,0.32,0.22,0.51,0.39c0.13,0.12,0.26,0.25,0.39,0.41c0,0,0,0.01,0.01,0.01
		c0.09,0.11,0.17,0.23,0.24,0.37c0.04,0.08,0.08,0.16,0.12,0.25c0.08,0.18,0.15,0.37,0.21,0.57c0.08,0.27,0.14,0.56,0.18,0.85
		c0.03,0.18,0.04,0.36,0.05,0.54c0.03,0,0.05,0,0.07,0.01c0.19,0.01,0.37,0.04,0.54,0.07c0.35,0.07,0.67,0.18,0.96,0.34
		c0.09,0.05,0.18,0.1,0.26,0.16c0.04-0.39,0.04-0.76,0.02-1.11c-0.02-0.39-0.07-0.75-0.15-1.09c-0.03-0.11-0.06-0.23-0.09-0.33
		c-0.07-0.23-0.14-0.45-0.23-0.65c-0.12-0.28-0.26-0.54-0.4-0.77c-0.12-0.19-0.24-0.37-0.37-0.53c-0.14-0.18-0.28-0.33-0.42-0.47
		c-0.16-0.16-0.32-0.3-0.46-0.42c-0.11-0.09-0.21-0.17-0.31-0.23c-0.09-0.06-0.17-0.11-0.23-0.15c-0.02-0.01-0.04-0.03-0.06-0.04
		c-0.07-0.22-0.23-0.6-0.5-1c-0.11-0.16-0.23-0.32-0.38-0.48c-0.14-0.15-0.3-0.3-0.48-0.44c-0.24-0.19-0.52-0.36-0.85-0.5
		c-0.13-0.06-0.27-0.11-0.42-0.16c-0.05-0.02-0.1-0.03-0.16-0.04c-0.05-0.01-0.1-0.03-0.16-0.05c-0.03-0.24-0.08-0.53-0.18-0.84
		c-0.04-0.11-0.08-0.22-0.13-0.34c-0.19-0.45-0.49-0.91-0.96-1.32c-0.02-0.02-0.04-0.03-0.06-0.05c-0.02-0.02-0.05-0.04-0.07-0.06
		c-0.2-0.15-0.41-0.3-0.67-0.43c-0.04-0.02-0.09-0.04-0.14-0.06c-0.16-0.08-0.32-0.14-0.49-0.2c-0.3-0.11-0.61-0.18-0.92-0.23
		c-0.17-0.02-0.33-0.04-0.5-0.05c-0.07,0-0.14-0.01-0.21-0.01c-0.08,0-0.16,0.01-0.24,0.01c-0.35,0.02-0.68,0.07-0.97,0.15
		c-0.22,0.06-0.43,0.13-0.62,0.2c-0.2,0.08-0.37,0.17-0.52,0.25c-0.09-0.11-0.18-0.21-0.29-0.32c-0.12-0.12-0.24-0.24-0.38-0.35
		c-0.16-0.13-0.34-0.26-0.53-0.38c-0.16-0.1-0.33-0.19-0.51-0.28c-0.25-0.12-0.53-0.22-0.84-0.31c-0.19-0.05-0.38-0.09-0.59-0.13
		c-0.25-0.04-0.51-0.07-0.79-0.08C16.88,0,16.78,0,16.68,0c-0.11,0-0.22,0-0.34,0.01c-0.23,0.01-0.46,0.03-0.69,0.06
		c-0.24,0.03-0.48,0.07-0.73,0.12c-0.16,0.03-0.33,0.07-0.5,0.11c-0.15,0.04-0.31,0.08-0.46,0.13c-0.16,0.05-0.31,0.1-0.47,0.15
		c-0.19,0.07-0.37,0.14-0.55,0.21c-0.31,0.13-0.6,0.28-0.88,0.44c-0.52,0.3-0.97,0.63-1.36,0.99c-0.02,0.02-0.04,0.04-0.07,0.06
		c-0.48,0.44-0.86,0.91-1.18,1.37C9.38,3.79,9.3,3.92,9.22,4.05C9.08,4.28,8.96,4.5,8.86,4.72c-0.02,0.03-0.03,0.06-0.05,0.1
		C8.77,4.9,8.73,4.99,8.69,5.08C8.6,5.3,8.52,5.52,8.45,5.73C8.35,6,8.28,6.26,8.22,6.5c-0.06,0.25-0.1,0.47-0.14,0.67
		c-0.1,0.04-0.2,0.08-0.29,0.12C7.65,7.36,7.51,7.43,7.37,7.51C7.16,7.63,6.96,7.77,6.76,7.93C6.62,8.04,6.49,8.15,6.37,8.27
		C6.19,8.45,6.02,8.64,5.86,8.84C5.74,9,5.62,9.17,5.51,9.35C5.44,9.47,5.37,9.59,5.3,9.72c-0.13,0.25-0.25,0.52-0.36,0.81v0.01
		h1.18h0.25h0.25H7c0.25-0.43,0.53-0.77,0.8-1.04c0.02-0.02,0.05-0.05,0.07-0.07C7.89,9.4,7.92,9.38,7.94,9.35
		c0.51-0.46,0.99-0.67,1.27-0.77c0.16-0.05,0.27-0.07,0.27-0.07S9.52,8.3,9.62,7.93c0.06-0.22,0.14-0.48,0.24-0.78
		c0.07-0.2,0.15-0.42,0.25-0.64c0.05-0.12,0.11-0.24,0.16-0.37c0.06-0.13,0.12-0.25,0.19-0.39c0.06-0.11,0.11-0.21,0.18-0.32
		c0.07-0.12,0.14-0.24,0.22-0.36c0.16-0.24,0.33-0.47,0.51-0.69c0.21-0.25,0.44-0.48,0.69-0.7c0.02-0.01,0.03-0.03,0.05-0.04
		c0.25-0.21,0.52-0.4,0.81-0.57c0.18-0.11,0.37-0.21,0.57-0.3c0.3-0.14,0.62-0.26,0.95-0.36c0.13-0.04,0.26-0.07,0.39-0.11
		c0.03-0.01,0.06-0.01,0.09-0.02c0.02,0,0.03-0.01,0.05-0.01c0.08-0.02,0.15-0.04,0.23-0.05c0.35-0.07,0.68-0.13,1-0.15
		c0.05,0,0.1-0.01,0.15-0.01c0.06,0,0.11-0.01,0.17-0.01c0.06,0,0.11,0,0.17,0c0.41,0,0.77,0.05,1.09,0.12
		c0.06,0.01,0.12,0.03,0.18,0.05c0.55,0.16,0.96,0.41,1.24,0.67c0.39,0.34,0.56,0.67,0.6,0.76c0.01,0.01,0.01,0.02,0.01,0.02
		l0.33,0.92l0.16,0.45l0.14-0.15l0.17-0.18l0.68-0.7c0.13-0.13,0.31-0.26,0.52-0.37c0.07-0.04,0.14-0.07,0.22-0.1
		c0.05-0.02,0.11-0.04,0.16-0.06c0.31-0.11,0.66-0.18,1.05-0.18c0.07,0,0.14,0,0.21,0.01c0.1,0.01,0.2,0.02,0.3,0.04
		c0.32,0.05,0.63,0.15,0.93,0.3c0.01,0.01,0.03,0.01,0.04,0.02c0.03,0.02,0.06,0.03,0.09,0.05c0.02,0.01,0.05,0.03,0.07,0.04
		c0.62,0.38,0.8,0.93,0.84,1.32c0.02,0.23,0,0.4-0.01,0.44L25.7,5.7l-0.15,0.8l-0.03,0.18l0.59,0.04l0.22,0.01l0.27,0.02
		c0.29,0.02,0.55,0.07,0.77,0.14c0.14,0.04,0.27,0.09,0.39,0.15C28.25,7.28,28.52,7.64,28.66,7.93z"/>
</g>
</svg>
